<?xml version="1.0" encoding="utf-8" ?><svg xmlns="http://www.w3.org/2000/svg" xmlns:xlink="http://www.w3.org/1999/xlink" width="1024" height="1024" viewBox="0 0 1024 1024" fill="currentColor"><path transform="scale(2 2)" d="M294.334 236.24C284.318 236.197 273.444 237.883 265.275 230.793C254.567 221.5 256.651 207.588 256.658 194.887L256.658 140.227C256.664 121.862 257.97 107.67 279.988 106.313C280.012 106.313 280.036 106.312 280.061 106.312L417.189 106.307C435.485 106.307 453.667 106.963 453.752 130.619L453.756 205.213C453.743 218.007 452.085 230.52 436.749 234.422C430.708 235.959 422.291 235.259 415.941 235.26L385.875 235.251C362.47 235.269 368.291 232.029 349.866 245.648L323.133 265.176C319.422 267.912 304.749 280.132 300.675 280.267C292.054 280.554 294.316 268.83 294.323 263.58L294.334 236.24ZM280.841 118.172C268.142 118.196 268.24 126.475 268.254 136.986L268.27 209.257C268.333 227.933 281.647 224.646 295.363 224.582C303.757 224.543 305.893 225.833 306.01 234.287C306.141 243.778 306.018 253.287 306.009 262.779C323.339 251.351 339.391 237.434 356.385 226.326C361.583 222.928 366.66 223.732 372.644 223.732L391.625 223.747L418.603 223.757C437.571 223.754 442.156 225.15 442.171 204.52L442.153 134.474C441.991 114.402 431.124 118.139 416.089 118.166L280.841 118.172Z"/><path transform="scale(2 2)" d="M343.795 207.126C336.553 208.49 335.554 202.297 337.83 196.786C343.198 183.782 348.847 170.901 354.336 157.95L360.298 143.906C361.844 140.357 362.683 136.394 366.518 134.779C378.997 134.045 371.965 146.195 369.358 152.214L352.147 192.792C350.256 197.327 348.579 204.762 343.795 207.126Z"/><path transform="scale(2 2)" d="M320.04 196.992C314.871 194.162 296.39 180.295 292.107 176.198C288.884 173.116 289.828 169.446 292.772 166.793C296.8 163.161 316.728 147.589 320.828 146.103C325.888 145.128 329.868 150.28 326.667 154.813C321.469 162.172 311.023 164.733 306.009 172.162C309.925 175.468 325.166 185.768 326.976 188.72C330.028 193.697 325.078 198.453 320.04 196.992Z"/><path transform="scale(2 2)" d="M129.101 255.728C126.714 252.914 124.041 250.338 121.747 247.45C90.9666 208.711 118.13 149.245 167.922 146.103C168.862 145.959 169.918 145.981 170.87 145.964C228.442 144.885 255.914 213.438 215.438 255.728C260.667 274.405 285.942 311.625 286.359 361.544C286.525 381.329 272.061 399.727 252.862 404.38C244.45 406.419 230.263 405.583 221.15 405.584L176.061 405.578L125.568 405.586C116.302 405.586 106.656 406.181 97.4561 405.14C67.8408 401.788 56.0375 377.444 58.2096 350.597C61.5956 308.746 88.5092 268.989 129.101 255.728ZM167.602 157.996C139.263 160.468 118.275 185.414 120.687 213.758C123.098 242.101 148 263.143 176.348 260.792C204.783 258.434 225.903 233.441 223.484 205.011C221.065 176.581 196.026 155.516 167.602 157.996ZM139.678 264.463C134.368 265.688 129.116 268.051 124.247 270.481C91.5854 286.783 71.7237 317.432 69.6097 353.75C68.4304 374.01 78.8344 393.874 101.527 393.761L101.516 364.635C101.516 360.653 101.033 355.132 101.742 351.347C102.997 344.649 112.312 345.294 113.215 351.842C113.847 356.421 113.449 361.465 113.449 366.102L113.435 393.761L213.875 393.761L230.735 393.761L230.717 364.184C230.716 360.477 230.226 354.522 230.93 351.125C232.184 345.068 241.415 344.891 242.236 351.45C243.686 363.051 242.134 381.422 242.375 393.761C265.494 391.989 276.102 376.172 274.276 353.871C270.715 310.386 246.027 277.09 204.383 264.463C186.889 273.807 166.919 276.404 148.471 268.297C146.297 267.341 141.974 264.044 139.678 264.463Z"/><path transform="scale(2 2)" d="M406.329 172.162C401.741 168.493 372.132 152.282 387.264 146.103C391.356 145.448 394.551 148.975 397.532 151.262L405.994 157.658C419.278 167.667 429.061 169.371 412.257 181.888C405.703 186.771 398.494 191.57 392.451 196.992C385.748 199.512 380.184 192.878 384.649 188.096C386.87 185.719 389.948 183.897 392.592 182L406.329 172.162Z"/></svg>