<svg version="1.1" id="Layer_1" xmlns="http://www.w3.org/2000/svg" xmlns:xlink="http://www.w3.org/1999/xlink" x="0px" y="0px"
	 width="100%" viewBox="0 0 400 400" enable-background="new 0 0 400 400" xml:space="preserve">
<path fill="#FFFFFF" opacity="1.000000" stroke="none" 
	d="
M262.000000,401.000000 
	C174.666672,401.000000 87.833336,401.000000 1.000000,401.000000 
	C1.000000,267.666656 1.000000,134.333328 1.000000,1.000000 
	C134.333328,1.000000 267.666656,1.000000 401.000000,1.000000 
	C401.000000,134.333328 401.000000,267.666656 401.000000,401.000000 
	C354.833344,401.000000 308.666656,401.000000 262.000000,401.000000 
M368.994507,228.462616 
	C368.763550,228.197266 368.532562,227.931915 368.218842,226.975281 
	C367.917480,226.384918 367.678497,225.751617 367.305908,225.210266 
	C334.463470,177.495911 301.627258,129.777237 268.748474,82.087914 
	C258.927948,67.843620 248.986282,53.682835 238.933502,38.877975 
	C235.488663,37.747952 236.011826,41.037884 235.405472,42.432266 
	C226.287384,63.400291 217.332535,84.439293 208.339081,105.461525 
	C199.833206,125.344009 191.327103,145.226395 182.494171,165.295059 
	C182.290344,165.483582 182.217621,165.713684 182.110123,166.458069 
	C182.053040,166.615005 181.995941,166.771927 181.212036,167.014160 
	C180.481247,166.999725 179.750473,166.985291 178.525436,166.436798 
	C129.866943,150.620743 81.208450,134.804703 31.300858,118.582634 
	C32.314423,122.096802 32.735645,123.861305 33.328247,125.566246 
	C42.050587,150.660828 50.737492,175.767960 59.548897,200.831299 
	C73.271957,239.865417 87.036926,278.884979 100.902763,317.868500 
	C103.211884,324.360565 106.122910,330.638519 109.058174,337.771210 
	C110.441185,337.575806 111.944733,337.666870 113.189590,337.143127 
	C144.589096,323.932159 175.948792,310.626709 207.342636,297.402283 
	C231.231049,287.339478 255.156738,277.365204 279.267761,268.206665 
	C284.678528,297.964569 290.089264,327.722473 295.727600,358.731934 
	C296.902222,356.765289 297.330353,356.078583 297.729675,355.375519 
	C315.881927,323.416840 334.064392,291.475220 352.162415,259.485809 
	C357.874481,249.389328 363.359711,239.164474 368.994507,228.462616 
z"/>
<path fill="#79768C" opacity="1.000000" stroke="none" 
	d="
M279.065857,267.351562 
	C255.156738,277.365204 231.231049,287.339478 207.342636,297.402283 
	C175.948792,310.626709 144.589096,323.932159 113.189590,337.143127 
	C111.944733,337.666870 110.441185,337.575806 109.222801,337.211243 
	C120.928932,309.696564 132.470444,282.741913 144.135818,255.743317 
	C144.447128,255.580170 144.472351,255.433258 144.507111,254.907028 
	C144.815613,254.053070 144.952393,253.550735 145.344116,252.812637 
	C146.435135,250.064301 147.271210,247.551727 148.062073,245.029388 
	C148.016861,245.019623 148.081009,245.086288 148.383026,244.907501 
	C149.490677,242.509949 150.296326,240.291199 151.085480,238.031952 
	C151.068985,237.991455 151.075287,238.077621 151.371674,237.898148 
	C154.500473,230.861435 157.332886,224.004211 160.135834,217.085663 
	C160.106369,217.024353 160.114075,217.160187 160.367157,217.153900 
	C160.785110,217.109482 160.949966,217.071365 161.456909,216.960220 
	C162.870621,214.261459 163.942245,211.635712 165.317810,208.850174 
	C166.084839,207.463547 166.547897,206.236725 167.290955,204.802002 
	C168.666107,201.300858 169.761276,198.007614 170.864594,194.531281 
	C170.872757,194.348175 170.978851,193.997299 171.355194,193.953278 
	C172.488983,191.941483 173.246399,189.973724 174.317368,187.842346 
	C175.735214,184.418564 176.839508,181.158432 177.987244,177.540283 
	C179.391052,174.095230 180.751419,171.008163 182.487366,167.936676 
	C186.288284,169.148972 189.692841,170.409607 193.142532,171.531509 
	C209.204254,176.755096 225.257706,182.005646 241.357056,187.111176 
	C249.181778,189.592621 257.100647,191.777161 265.122833,194.316559 
	C265.836487,194.940521 266.404175,195.344070 266.953857,196.200714 
	C268.543762,206.285324 270.087128,215.928131 271.774963,225.545578 
	C274.179047,239.244156 276.689087,252.924118 279.121582,266.795715 
	C279.089264,266.979370 279.065857,267.351562 279.065857,267.351562 
z"/>
<path fill="#A4EDBB" opacity="1.000000" stroke="none" 
	d="
M145.089172,253.048401 
	C144.952393,253.550735 144.815613,254.053070 144.441681,254.981186 
	C144.204529,255.406967 144.011948,255.787231 144.011948,255.787231 
	C132.470444,282.741913 120.928932,309.696564 109.071609,336.833313 
	C106.122910,330.638519 103.211884,324.360565 100.902763,317.868500 
	C87.036926,278.884979 73.271957,239.865417 59.548897,200.831299 
	C50.737492,175.767960 42.050587,150.660828 33.328247,125.566246 
	C32.735645,123.861305 32.314423,122.096802 31.300858,118.582634 
	C81.208450,134.804703 129.866943,150.620743 178.765930,167.113678 
	C178.392380,171.232056 177.778320,174.673538 177.113403,178.389618 
	C176.786041,179.137054 176.509537,179.609894 175.856659,180.098984 
	C172.054901,183.371582 170.643845,187.377213 171.036072,192.042206 
	C171.033218,192.029724 171.067444,192.049820 170.747009,192.177734 
	C169.661835,194.558121 168.897079,196.810593 168.100739,199.347916 
	C167.791412,200.114670 167.513702,200.596558 166.853638,201.096146 
	C164.660355,205.783401 162.849411,210.452942 161.026703,215.343323 
	C161.014954,215.564163 160.931656,215.998550 160.719955,216.131027 
	C160.376862,216.562393 160.245468,216.861298 160.114075,217.160187 
	C160.114075,217.160187 160.106369,217.024353 159.746048,217.074432 
	C157.844421,220.025085 156.007538,222.811737 154.835205,225.854462 
	C153.306305,229.822662 152.304138,233.993805 151.075287,238.077621 
	C151.075287,238.077621 151.068985,237.991455 150.713928,238.064392 
	C149.599579,240.453629 148.840286,242.769958 148.080994,245.086288 
	C148.081009,245.086288 148.016861,245.019623 147.763062,245.200195 
	C146.702560,247.936630 145.895859,250.492523 145.089172,253.048401 
z"/>
<path fill="#6899A3" opacity="1.000000" stroke="none" 
	d="
M266.971863,195.747589 
	C266.404175,195.344070 265.836487,194.940521 265.324280,194.033737 
	C262.660034,177.435883 260.029663,161.325485 257.194153,145.251282 
	C254.611633,130.611282 251.773483,116.016579 249.110092,101.390610 
	C247.098267,90.342613 245.064194,79.296318 243.263412,68.212975 
	C241.711807,58.663197 240.475708,49.062160 239.100113,39.483788 
	C248.986282,53.682835 258.927948,67.843620 268.748474,82.087914 
	C301.627258,129.777237 334.463470,177.495911 367.305908,225.210266 
	C367.678497,225.751617 367.917480,226.384918 367.860443,227.407898 
	C351.379730,222.726791 335.249695,217.637390 319.137238,212.492737 
	C301.740173,206.937943 284.359619,201.331512 266.971863,195.747589 
z"/>
<path fill="#8187E7" opacity="1.000000" stroke="none" 
	d="
M239.016815,39.180882 
	C240.475708,49.062160 241.711807,58.663197 243.263412,68.212975 
	C245.064194,79.296318 247.098267,90.342613 249.110092,101.390610 
	C251.773483,116.016579 254.611633,130.611282 257.194153,145.251282 
	C260.029663,161.325485 262.660034,177.435883 265.178345,193.813324 
	C257.100647,191.777161 249.181778,189.592621 241.357056,187.111176 
	C225.257706,182.005646 209.204254,176.755096 193.142532,171.531509 
	C189.692841,170.409607 186.288284,169.148972 182.450150,167.688019 
	C182.004517,167.258820 181.971680,167.093842 181.938858,166.928864 
	C181.995941,166.771927 182.053040,166.615005 182.345398,166.121460 
	C182.763672,165.596130 182.843811,165.370789 182.821106,165.108826 
	C191.327103,145.226395 199.833206,125.344009 208.339081,105.461525 
	C217.332535,84.439293 226.287384,63.400291 235.405472,42.432266 
	C236.011826,41.037884 235.488663,37.747952 239.016815,39.180882 
z"/>
<path fill="#6999A2" opacity="1.000000" stroke="none" 
	d="
M279.166809,267.779114 
	C279.065857,267.351562 279.089264,266.979370 279.441956,266.722656 
	C288.984680,262.594421 298.171509,258.715149 307.365448,254.852905 
	C327.891296,246.230209 348.420776,237.616028 368.948761,228.998383 
	C363.359711,239.164474 357.874481,249.389328 352.162415,259.485809 
	C334.064392,291.475220 315.881927,323.416840 297.729675,355.375519 
	C297.330353,356.078583 296.902222,356.765289 295.727600,358.731934 
	C290.089264,327.722473 284.678528,297.964569 279.166809,267.779114 
z"/>
<path fill="#30426C" opacity="1.000000" stroke="none" 
	d="
M368.971619,228.730499 
	C348.420776,237.616028 327.891296,246.230209 307.365448,254.852905 
	C298.171509,258.715149 288.984680,262.594421 279.474243,266.539001 
	C276.689087,252.924118 274.179047,239.244156 271.774963,225.545578 
	C270.087128,215.928131 268.543762,206.285324 266.953857,196.200714 
	C284.359619,201.331512 301.740173,206.937943 319.137238,212.492737 
	C335.249695,217.637390 351.379730,222.726791 367.901794,227.753540 
	C368.532562,227.931915 368.763550,228.197266 368.971619,228.730499 
z"/>
<path fill="#ACDDC3" opacity="1.000000" stroke="none" 
	d="
M181.575439,166.971512 
	C181.971680,167.093842 182.004517,167.258820 182.074570,167.672455 
	C180.751419,171.008163 179.391052,174.095230 177.793610,177.598557 
	C177.556549,178.014816 177.164261,178.115036 177.164261,178.115036 
	C177.778320,174.673538 178.392380,171.232056 179.013062,167.380707 
	C179.750473,166.985291 180.481247,166.999725 181.575439,166.971512 
z"/>
<path fill="#ACDDC3" opacity="1.000000" stroke="none" 
	d="
M182.657639,165.201935 
	C182.843811,165.370789 182.763672,165.596130 182.428345,165.885101 
	C182.217621,165.713684 182.290344,165.483582 182.657639,165.201935 
z"/>
<path fill="#ACDDC3" opacity="1.000000" stroke="none" 
	d="
M151.371674,237.898148 
	C152.304138,233.993805 153.306305,229.822662 154.835205,225.854462 
	C156.007538,222.811737 157.844421,220.025085 159.775513,217.135742 
	C157.332886,224.004211 154.500473,230.861435 151.371674,237.898148 
z"/>
<path fill="#6D8183" opacity="1.000000" stroke="none" 
	d="
M167.235977,201.078430 
	C167.513702,200.596558 167.791412,200.114670 168.333344,199.129913 
	C169.350525,197.322815 170.103485,196.018600 170.856445,194.714371 
	C169.761276,198.007614 168.666107,201.300858 167.168365,204.706573 
	C166.765793,204.819077 166.520401,204.628555 166.631805,204.286255 
	C166.907486,202.988770 167.071732,202.033600 167.235977,201.078430 
z"/>
<path fill="#6D8183" opacity="1.000000" stroke="none" 
	d="
M177.113403,178.389618 
	C177.164261,178.115036 177.556549,178.014816 177.750183,177.956543 
	C176.839508,181.158432 175.735214,184.418564 174.245163,187.787781 
	C173.859421,187.896835 173.714478,187.788696 173.781662,187.430664 
	C174.643570,184.742645 175.438293,182.412689 176.233032,180.082718 
	C176.509537,179.609894 176.786041,179.137054 177.113403,178.389618 
z"/>
<path fill="#ACDDC3" opacity="1.000000" stroke="none" 
	d="
M145.344101,252.812637 
	C145.895859,250.492523 146.702560,247.936630 147.808258,245.209961 
	C147.271210,247.551727 146.435135,250.064301 145.344101,252.812637 
z"/>
<path fill="#ACDDC3" opacity="1.000000" stroke="none" 
	d="
M170.864594,194.531281 
	C170.103485,196.018600 169.350525,197.322815 168.364960,198.845047 
	C168.897079,196.810593 169.661835,194.558121 170.732910,192.502289 
	C171.019104,193.131699 170.998978,193.564499 170.978851,193.997299 
	C170.978851,193.997299 170.872757,194.348175 170.864594,194.531281 
z"/>
<path fill="#6D8183" opacity="1.000000" stroke="none" 
	d="
M160.931656,215.998550 
	C160.931656,215.998550 161.014954,215.564163 161.287262,215.126617 
	C162.614441,212.724335 163.669327,210.759583 164.796600,208.848679 
	C164.868973,208.902512 165.013855,209.009979 165.013855,209.009979 
	C163.942245,211.635712 162.870621,214.261459 161.421677,216.699585 
	C161.006790,216.340820 160.969223,216.169678 160.931656,215.998550 
z"/>
<path fill="#ACDDC3" opacity="1.000000" stroke="none" 
	d="
M148.383011,244.907501 
	C148.840286,242.769958 149.599579,240.453629 150.730438,238.104874 
	C150.296326,240.291199 149.490677,242.509949 148.383011,244.907501 
z"/>
<path fill="#6D8183" opacity="1.000000" stroke="none" 
	d="
M171.355194,193.953278 
	C170.998978,193.564499 171.019104,193.131699 171.053329,192.374359 
	C171.067444,192.049820 171.033218,192.029724 171.283203,191.841644 
	C172.260284,190.365280 172.987381,189.076996 173.714478,187.788696 
	C173.714478,187.788696 173.859421,187.896835 173.931625,187.951401 
	C173.246399,189.973724 172.488983,191.941483 171.355194,193.953278 
z"/>
<path fill="#6D8183" opacity="1.000000" stroke="none" 
	d="
M166.888367,204.914490 
	C166.547897,206.236725 166.084839,207.463547 165.317810,208.850174 
	C165.013855,209.009979 164.868973,208.902512 164.857147,208.527100 
	C165.403671,206.977295 165.962036,205.802933 166.520401,204.628555 
	C166.520401,204.628555 166.765793,204.819077 166.888367,204.914490 
z"/>
<path fill="#ACDDC3" opacity="1.000000" stroke="none" 
	d="
M160.719955,216.131027 
	C160.969223,216.169678 161.006790,216.340820 161.079590,216.772614 
	C160.949966,217.071365 160.785110,217.109482 160.367157,217.153900 
	C160.245468,216.861298 160.376862,216.562393 160.719955,216.131027 
z"/>
<path fill="#ACDDC3" opacity="1.000000" stroke="none" 
	d="
M144.135818,255.743317 
	C144.011948,255.787231 144.204529,255.406967 144.269943,255.332809 
	C144.472351,255.433258 144.447128,255.580170 144.135818,255.743317 
z"/>
<path fill="#ACDDC3" opacity="1.000000" stroke="none" 
	d="
M166.631805,204.286255 
	C165.962036,205.802933 165.403671,206.977295 164.784760,208.473267 
	C163.669327,210.759583 162.614441,212.724335 161.299011,214.905792 
	C162.849411,210.452942 164.660355,205.783401 166.853638,201.096146 
	C167.071732,202.033600 166.907486,202.988770 166.631805,204.286255 
z"/>
<path fill="#ACDDC3" opacity="1.000000" stroke="none" 
	d="
M173.781662,187.430664 
	C172.987381,189.076996 172.260284,190.365280 171.286072,191.854141 
	C170.643845,187.377213 172.054901,183.371582 175.856644,180.098984 
	C175.438293,182.412689 174.643570,184.742645 173.781662,187.430664 
z"/>
</svg>